<?xml version="1.0" standalone="no"?>
<!DOCTYPE svg PUBLIC "-//W3C//DTD SVG 1.1//EN" "http://www.w3.org/Graphics/SVG/1.1/DTD/svg11.dtd">
<!--Generator: Xara Designer (www.xara.com), SVG filter version: 6.1.0.16-->
<svg stroke-width="0.501" stroke-linejoin="bevel" fill-rule="evenodd" xmlns:xlink="http://www.w3.org/1999/xlink" xmlns="http://www.w3.org/2000/svg" version="1.1" overflow="visible" width="720pt" height="720pt" viewBox="0 0 720 720">
 <defs>
	</defs>
 <g id="Document" fill="none" stroke="black" font-family="Times New Roman" font-size="16" transform="scale(1 -1)">
  <g id="Spread" transform="translate(0 -720)">
   <g id="Layer 1">
    <path d="M 42.951,614.168 L 42.228,198.684 L 279.982,198.347 C 301.206,195.112 320.546,183.845 333.932,147.294 L 389.685,147.294 C 400.594,180.701 418.776,199.585 446.852,198.684 L 676.309,197.236 L 676.309,612.002 L 414.28,613.445 C 387.879,608.334 369.403,593.025 356.372,570.736 C 341.34,601.106 314.532,610.197 287.606,613.445 L 42.951,614.168 Z" fill="#ffffff" stroke-width="0.9" marker-start="none" marker-end="none" stroke-miterlimit="79.8403193612775"/>
    <path d="M 292.76,123.938 L 292.702,124.286 C 290.357,139.62 286.216,147.941 277.545,151.848 L 267.729,154.267 L 21.716,154.267 C 9.732,154.267 0.002,163.992 0.002,175.978 L 0.002,577.975 C 0.002,578.212 0.002,578.45 0.009,578.693 L 43.901,578.693 C 43.911,578.45 43.914,578.212 43.914,577.975 L 43.914,198.178 L 269.556,198.178 L 271.794,197.812 L 271.826,198.051 C 303.687,194.72 321.13,176.621 329.927,154.449 L 331.463,149.708 L 388.522,149.708 L 390.142,154.666 C 399.034,176.923 416.576,194.752 448.172,198.051 L 448.196,197.812 L 450.442,198.178 L 676.084,198.178 L 676.084,577.975 C 676.084,578.212 676.084,578.45 676.097,578.693 L 719.983,578.693 C 719.996,578.45 719.998,578.212 719.998,577.975 L 719.998,175.978 C 719.998,163.992 710.266,154.267 698.285,154.267 L 452.246,154.267 L 442.635,151.936 C 434.038,148.152 429.688,139.998 427.287,124.286 L 427.233,123.938 C 425.49,113.473 416.419,105.796 405.813,105.796 L 314.182,105.796 C 303.57,105.796 294.502,113.473 292.76,123.938 Z" fill="#7f81ff" stroke="none" stroke-width="2.411" fill-rule="evenodd" marker-start="none" marker-end="none" stroke-miterlimit="79.8403193612775"/>
    <path d="M 79.864,515 C 79.864,518.992 83.108,522.241 87.105,522.241 L 311.502,522.241 C 315.494,522.241 318.743,518.992 318.743,515 C 318.743,511.008 315.494,507.763 311.502,507.763 L 87.105,507.763 C 83.108,507.763 79.864,511.008 79.864,515 Z" stroke="none" fill="#666666" stroke-width="2.411" fill-rule="evenodd" marker-start="none" marker-end="none" stroke-miterlimit="79.8403193612775"/>
    <path d="M 396.182,515 C 396.182,518.992 399.425,522.241 403.421,522.241 L 627.817,522.241 C 631.812,522.241 635.058,518.992 635.058,515 C 635.058,511.008 631.812,507.763 627.817,507.763 L 403.421,507.763 C 399.425,507.763 396.182,511.008 396.182,515 Z" stroke="none" fill="#666666" stroke-width="2.411" fill-rule="evenodd" marker-start="none" marker-end="none" stroke-miterlimit="79.8403193612775"/>
    <path d="M 79.864,468.436 C 79.864,472.424 83.108,475.672 87.105,475.672 L 311.502,475.672 C 315.494,475.672 318.743,472.424 318.743,468.436 C 318.743,464.436 315.494,461.195 311.502,461.195 L 87.105,461.195 C 83.108,461.195 79.864,464.436 79.864,468.436 Z" stroke="none" fill="#666666" stroke-width="2.411" fill-rule="evenodd" marker-start="none" marker-end="none" stroke-miterlimit="79.8403193612775"/>
    <path d="M 396.182,468.436 C 396.182,472.424 399.425,475.672 403.421,475.672 L 627.817,475.672 C 631.812,475.672 635.058,472.424 635.058,468.436 C 635.058,464.436 631.812,461.195 627.817,461.195 L 403.421,461.195 C 399.425,461.195 396.182,464.436 396.182,468.436 Z" stroke="none" fill="#666666" stroke-width="2.411" fill-rule="evenodd" marker-start="none" marker-end="none" stroke-miterlimit="79.8403193612775"/>
    <path d="M 79.864,421.868 C 79.864,425.858 83.108,429.104 87.105,429.104 L 311.502,429.104 C 315.494,429.104 318.743,425.858 318.743,421.868 C 318.743,417.871 315.494,414.63 311.502,414.63 L 87.105,414.63 C 83.108,414.63 79.864,417.871 79.864,421.868 Z" stroke="none" fill="#666666" stroke-width="2.411" fill-rule="evenodd" marker-start="none" marker-end="none" stroke-miterlimit="79.8403193612775"/>
    <path d="M 396.182,421.868 C 396.182,425.858 399.425,429.104 403.421,429.104 L 627.817,429.104 C 631.812,429.104 635.058,425.858 635.058,421.868 C 635.058,417.871 631.812,414.63 627.817,414.63 L 403.421,414.63 C 399.425,414.63 396.182,417.871 396.182,421.868 Z" stroke="none" fill="#666666" stroke-width="2.411" fill-rule="evenodd" marker-start="none" marker-end="none" stroke-miterlimit="79.8403193612775"/>
    <path d="M 79.864,375.3 C 79.864,379.29 83.108,382.538 87.105,382.538 L 228.986,382.538 C 232.973,382.538 236.222,379.29 236.222,375.3 C 236.222,371.303 232.973,368.059 228.986,368.059 L 87.105,368.059 C 83.108,368.059 79.864,371.303 79.864,375.3 Z" stroke="none" fill="#666666" stroke-width="2.411" fill-rule="evenodd" marker-start="none" marker-end="none" stroke-miterlimit="79.8403193612775"/>
    <path d="M 396.182,375.3 C 396.182,379.29 399.425,382.538 403.421,382.538 L 545.303,382.538 C 549.293,382.538 552.539,379.29 552.539,375.3 C 552.539,371.303 549.293,368.059 545.303,368.059 L 403.421,368.059 C 399.425,368.059 396.182,371.303 396.182,375.3 Z" stroke="none" fill="#666666" stroke-width="2.411" fill-rule="evenodd" marker-start="none" marker-end="none" stroke-miterlimit="79.8403193612775"/>
    <path d="M 352.808,156.852 L 352.808,582.181 C 352.808,582.4 352.808,582.622 352.816,582.849 L 359.166,572.535 L 363.667,580.858 L 363.667,156.852 C 363.667,153.814 363.276,151.007 362.616,148.739 L 353.865,148.739 C 353.2,151.007 352.808,153.814 352.808,156.852 Z" stroke="none" fill="#666666" stroke-width="1.811" fill-rule="evenodd" marker-start="none" marker-end="none" stroke-miterlimit="79.8403193612775"/>
    <path d="M 285.18,201.09 L 278.595,202.304 L 44.391,202.304 L 44.391,209.544 L 278.921,209.544 C 279.087,209.544 279.26,209.526 279.429,209.502 C 316.959,204.151 336.366,178.914 346.06,149.46 L 338.426,149.46 C 329.741,174.324 313.876,194.577 285.18,201.09 Z M 290.607,210.862 L 284.019,212.075 L 44.391,212.075 L 44.391,219.316 L 284.348,219.316 C 284.52,219.316 284.687,219.298 284.857,219.275 C 326.114,213.39 345.465,183.483 354.096,150.355 C 354.175,150.053 354.214,149.753 354.214,149.46 L 346.848,149.46 C 339.033,178.671 322.981,203.512 290.607,210.862 Z M 352.525,158.298 C 344.807,187.916 328.762,213.207 296.038,220.636 L 289.451,221.847 L 44.391,221.847 L 44.391,229.083 L 289.78,229.083 C 289.947,229.083 290.115,229.073 290.284,229.047 C 331.545,223.163 350.892,193.255 359.527,160.127 C 360.036,158.194 358.871,156.215 356.944,155.712 C 355.004,155.203 353.027,156.369 352.525,158.298 Z" stroke="none" fill="#666666" stroke-width="2.411" fill-rule="evenodd" marker-start="none" marker-end="none" stroke-miterlimit="79.8403193612775"/>
    <path d="M 364.08,150.355 C 372.73,183.537 392.109,213.401 433.323,219.275 C 433.495,219.298 433.665,219.316 433.836,219.316 L 675.586,219.316 L 675.586,212.075 L 434.155,212.075 L 427.58,210.862 C 395.219,203.525 379.153,178.725 371.325,149.46 L 363.96,149.46 C 363.96,149.753 363.999,150.053 364.08,150.355 Z M 438.755,209.502 C 438.924,209.526 439.092,209.544 439.267,209.544 L 675.586,209.544 L 675.586,202.304 L 439.586,202.304 L 433.01,201.09 C 404.321,194.586 388.438,174.358 379.751,149.46 L 372.117,149.46 C 381.826,178.945 401.242,204.151 438.755,209.502 Z M 361.24,155.712 C 359.31,156.215 358.146,158.194 358.655,160.127 C 367.303,193.309 386.673,223.167 427.896,229.047 C 428.065,229.073 428.232,229.083 428.407,229.083 L 674.516,229.083 C 674.887,229.083 675.241,229.025 675.586,228.921 L 675.586,222.006 C 675.241,221.899 674.887,221.847 674.516,221.847 L 428.725,221.847 L 422.15,220.636 C 389.448,213.22 373.385,187.973 365.659,158.298 C 365.152,156.369 363.177,155.203 361.24,155.712 Z" stroke="none" fill="#666666" stroke-width="2.411" fill-rule="evenodd" marker-start="none" marker-end="none" stroke-miterlimit="79.8403193612775"/>
    <path d="M 590.533,70.9 L 554.337,111.352 L 518.146,70.904 L 518.146,612.72 L 590.533,612.72 L 590.533,70.9 Z" fill="#0002bf" stroke="none" stroke-width="1.834" stroke-linejoin="miter" stroke-linecap="round" marker-start="none" marker-end="none" stroke-miterlimit="79.8403193612775"/>
   </g>
  </g>
 </g>
</svg>
